<svg enable-background="new 0 0 512 512" version="1.1" viewBox="0 0 512 512" xml:space="preserve" xmlns="http://www.w3.org/2000/svg">
			<path d="m362.667 281.882v-185.882c0-2.833-1.125-5.542-3.125-7.542l-85.334-85.333c-2-2-4.708-3.125-7.542-3.125h-160c-23.531 0-42.666 19.135-42.666 42.667v320c0 23.531 19.135 42.667 42.667 42.667h107.207c5.414 59.71 55.695 106.666 116.793 106.666 64.698 0 117.333-52.635 117.333-117.333 0-53.594-36.16-98.809-85.333-112.785zm-85.334-245.465 48.917 48.917h-27.583c-11.76 0-21.333-9.573-21.333-21.333v-27.584zm-170.666 347.583c-11.76 0-21.333-9.573-21.333-21.333v-320c0-11.76 9.573-21.333 21.333-21.333h149.333v42.666c0 23.531 19.135 42.667 42.667 42.667h42.667v171.207c-3.518-0.319-7.066-0.54-10.667-0.54-61.098 0-111.379 46.956-116.793 106.667h-107.207zm224 106.667c-52.938 0-96-43.063-96-96s43.063-96 96-96 96 43.063 96 96-43.063 96-96 96z"/>
			<path d="m373.333 384h-32v-32c0-5.896-4.771-10.667-10.667-10.667s-10.667 4.771-10.667 10.667v32h-32c-5.896 0-10.667 4.771-10.667 10.667s4.771 10.667 10.667 10.667h32v32c0 5.896 4.771 10.667 10.667 10.667s10.667-4.771 10.667-10.667v-32h32c5.896 0 10.667-4.771 10.667-10.667s-4.771-10.667-10.667-10.667z"/>
</svg>
