<!DOCTYPE svg  PUBLIC '-//W3C//DTD SVG 20010904//EN'  'http://www.w3.org/TR/2001/REC-SVG-20010904/DTD/svg10.dtd'>
<svg width="1280pt" height="1280pt" version="1.0" viewBox="0 0 1280 1280" xmlns="http://www.w3.org/2000/svg">
 <g transform="translate(0 1280) scale(.1 -.1)">
  <path d="m349 9831c-140-45-243-135-307-268-37-78-37-78-37-209v-131l84-168 3013-3012c2403-2401 3023-3016 3063-3036 154-76 333-76 479 0 40 21 723 698 3044 3017 1872 1871 3008 3013 3032 3050 109 161 108 391-2 556-148 222-454 282-683 134-29-18-1246-1228-2840-2823l-2790-2791-2805 2804c-2195 2194-2817 2810-2861 2834-111 62-274 80-390 43z"/>
 </g>
</svg>
