<?xml version="1.0" standalone="no"?>
<!DOCTYPE svg PUBLIC "-//W3C//DTD SVG 20010904//EN"
 "http://www.w3.org/TR/2001/REC-SVG-20010904/DTD/svg10.dtd">
<svg version="1.0" xmlns="http://www.w3.org/2000/svg"
 width="1280.000000pt" height="1280.000000pt" viewBox="0 0 1280.000000 1280.000000"
 preserveAspectRatio="xMidYMid meet">
<g transform="translate(0.000000,1280.000000) scale(0.100000,-0.100000)"
fill="#000000" stroke="none">
<path d="M349 9831 c-140 -45 -243 -135 -307 -268 -37 -78 -37 -78 -37 -209
l0 -131 42 -84 42 -84 3013 -3012 c2403 -2401 3023 -3016 3063 -3036 154 -76
333 -76 479 0 40 21 723 698 3044 3017 1872 1871 3008 3013 3032 3050 109 161
108 391 -2 556 -148 222 -454 282 -683 134 -29 -18 -1246 -1228 -2840 -2823
l-2790 -2791 -2805 2804 c-2195 2194 -2817 2810 -2861 2834 -111 62 -274 80
-390 43z"/>
</g>
</svg>
