<svg enable-background="new 0 0 477.867 477.867" version="1.1" viewBox="0 0 477.867 477.867" xml:space="preserve" xmlns="http://www.w3.org/2000/svg">
		<path d="m443.733 307.2c-9.426 0-17.067 7.641-17.067 17.067v102.4c0 9.426-7.641 17.067-17.067 17.067h-341.332c-9.426 0-17.067-7.641-17.067-17.067v-102.4c0-9.426-7.641-17.067-17.067-17.067s-17.067 7.641-17.067 17.067v102.4c0 28.277 22.923 51.2 51.2 51.2h341.334c28.277 0 51.2-22.923 51.2-51.2v-102.4c0-9.426-7.641-17.067-17.067-17.067z"/>
		<path d="m335.947 295.134c-6.614-6.387-17.099-6.387-23.712 0l-56.235 56.2v-334.267c0-9.426-7.641-17.067-17.067-17.067s-17.067 7.641-17.067 17.067v334.268l-56.201-56.201c-6.78-6.548-17.584-6.36-24.132 0.419-6.388 6.614-6.388 17.099 0 23.713l85.333 85.333c6.657 6.673 17.463 6.687 24.136 0.031l85.364-85.364c6.549-6.78 6.361-17.584-0.419-24.132z"/>
</svg>
