<svg xmlns="http://www.w3.org/2000/svg" viewBox="0 0 477.867 477.867"><path d="M460.8 170.667h-28.894a203.036 203.036 0 00-8.226-19.934l20.48-20.48c6.663-6.664 6.663-17.468 0-24.132l-72.482-72.346c-6.665-6.663-17.468-6.663-24.132 0l-20.48 20.48a206.392 206.392 0 00-19.866-8.294V17.067C307.2 7.641 299.559 0 290.133 0h-102.4c-9.426 0-17.067 7.641-17.067 17.067v28.894a206.34 206.34 0 00-19.951 8.226l-20.48-20.48c-6.665-6.662-17.468-6.662-24.132 0l-72.329 72.482c-6.663 6.664-6.663 17.468 0 24.132l20.48 20.48a202.631 202.631 0 00-8.294 19.866H17.067C7.641 170.667 0 178.308 0 187.733v102.4c0 9.426 7.641 17.067 17.067 17.067h28.894a202.79 202.79 0 008.226 19.934l-20.48 20.48c-6.662 6.665-6.662 17.468 0 24.132l72.414 72.414c6.665 6.662 17.468 6.662 24.132 0l20.48-20.48a206.65 206.65 0 0019.934 8.226V460.8c0 9.426 7.641 17.067 17.067 17.067h102.4c9.426 0 17.067-7.641 17.067-17.067v-28.894a206.34 206.34 0 0019.951-8.226l20.48 20.48c6.665 6.662 17.468 6.662 24.132 0l72.414-72.414c6.662-6.664 6.662-17.468 0-24.132l-20.48-20.48a202.67 202.67 0 008.209-19.934H460.8c9.426 0 17.067-7.641 17.067-17.067v-102.4c0-9.425-7.641-17.066-17.067-17.066zm-17.067 102.4h-24.32a17.066 17.066 0 00-16.418 12.407 169.62 169.62 0 01-15.087 36.591 17.067 17.067 0 002.833 20.48l17.067 17.152-48.196 48.196-17.152-17.067a17.067 17.067 0 00-20.48-2.833 170.177 170.177 0 01-36.574 15.087 17.068 17.068 0 00-12.425 16.418v24.235H204.8v-24.32a17.065 17.065 0 00-12.425-16.418 170.198 170.198 0 01-36.574-15.087 17.067 17.067 0 00-20.48 2.833l-17.067 17.067-48.282-48.196L87.04 342.46a17.067 17.067 0 002.833-20.48 169.6 169.6 0 01-15.087-36.591 17.066 17.066 0 00-16.333-12.322h-24.32V204.8h24.32a17.066 17.066 0 0016.418-12.407 169.62 169.62 0 0115.087-36.591 17.067 17.067 0 00-2.833-20.48l-17.067-17.067 48.196-48.282 17.067 17.067a17.067 17.067 0 0020.48 2.833 170.177 170.177 0 0136.574-15.087A17.068 17.068 0 00204.8 58.453v-24.32h68.267v24.32a17.065 17.065 0 0012.425 16.418 170.198 170.198 0 0136.574 15.087 17.067 17.067 0 0020.48-2.833l17.152-17.067 48.196 48.196-17.067 17.067a17.067 17.067 0 00-2.833 20.48 169.6 169.6 0 0115.087 36.591 17.066 17.066 0 0016.418 12.407h24.235v68.268z"/><path d="M238.933 119.467c-65.98 0-119.467 53.487-119.467 119.467S172.954 358.4 238.933 358.4 358.4 304.913 358.4 238.933c-.075-65.948-53.518-119.391-119.467-119.466zm0 204.8c-47.128 0-85.333-38.205-85.333-85.333s38.205-85.333 85.333-85.333 85.333 38.205 85.333 85.333c-.056 47.104-38.228 85.276-85.333 85.333z"/></svg>