<svg enable-background="new 0 0 477.863 477.863" version="1.1" viewBox="0 0 477.863 477.863" xml:space="preserve" xmlns="http://www.w3.org/2000/svg">
		<path d="m409.598 153.596h-85.333c-9.426 0-17.067 7.641-17.067 17.067s7.641 17.067 17.067 17.067h85.333c9.426 0 17.067 7.641 17.067 17.067v221.867c0 9.426-7.641 17.067-17.067 17.067h-341.333c-9.426 0-17.067-7.641-17.067-17.067v-221.868c0-9.426 7.641-17.067 17.067-17.067h85.333c9.426 0 17.067-7.641 17.067-17.067s-7.641-17.067-17.067-17.067h-85.333c-28.277 0-51.2 22.923-51.2 51.2v221.867c0 28.277 22.923 51.2 51.2 51.2h341.333c28.277 0 51.2-22.923 51.2-51.2v-221.866c0-28.277-22.923-51.2-51.2-51.2z"/>
		<path d="m336.331 90.33-85.333-85.333c-6.664-6.663-17.468-6.663-24.132 0l-85.334 85.333c-6.548 6.78-6.36 17.584 0.42 24.132 6.614 6.388 17.099 6.388 23.713 0l56.201-56.201v283.069c0 9.426 7.641 17.067 17.067 17.067s17.067-7.641 17.067-17.067v-283.068l56.201 56.201c6.78 6.548 17.584 6.36 24.132-0.42 6.386-6.614 6.386-17.099-2e-3 -23.713z"/>
</svg>
